<?xml version="1.0" standalone="no"?>
<!DOCTYPE svg PUBLIC "-//W3C//DTD SVG 20010904//EN"
 "http://www.w3.org/TR/2001/REC-SVG-20010904/DTD/svg10.dtd">
<svg version="1.0" xmlns="http://www.w3.org/2000/svg"
 width="300.000000pt" height="300.000000pt" viewBox="0 0 300.000000 300.000000"
 preserveAspectRatio="xMidYMid meet">
<metadata>
Created by potrace 1.14, written by Peter Selinger 2001-2017
</metadata>
<g transform="translate(0.000000,300.000000) scale(0.100000,-0.100000)"
fill="#000000" stroke="none">
<path d="M1474 2090 c-44 -10 -113 -46 -163 -85 -43 -34 -146 -141 -149 -156
-2 -8 -8 -16 -13 -17 -5 -2 -7 -8 -3 -13 3 -5 0 -9 -6 -9 -6 0 -8 -4 -5 -10 3
-5 0 -10 -8 -10 -9 0 -13 -9 -12 -25 2 -14 0 -25 -5 -25 -7 0 -24 -57 -21 -72
0 -5 -3 -8 -7 -8 -4 0 -7 -12 -7 -27 1 -16 -1 -32 -4 -38 -3 -5 -6 -21 -7 -35
-1 -14 -5 -45 -8 -70 -3 -27 0 -50 7 -59 9 -12 9 -13 -1 -7 -13 8 -13 3 4 -74
3 -14 7 -30 8 -37 1 -7 5 -16 9 -19 4 -4 7 -14 7 -23 0 -9 10 -36 22 -61 11
-25 22 -51 24 -59 1 -8 10 -18 18 -23 9 -5 16 -14 16 -20 0 -6 13 -24 30 -39
16 -16 30 -31 30 -34 0 -3 3 -6 7 -7 3 -2 21 -16 39 -33 51 -47 61 -54 68 -48
3 4 6 2 6 -4 0 -6 8 -13 18 -17 64 -23 81 -28 112 -32 49 -8 75 -12 75 -14 0
-5 156 -4 177 1 15 4 30 3 34 -2 3 -5 10 -7 15 -3 6 3 34 8 64 10 63 4 84 8
144 24 50 13 135 63 125 73 -4 4 0 7 9 7 8 0 34 18 56 40 22 22 37 40 34 40
-4 0 2 7 13 15 10 8 16 15 12 15 -5 0 1 9 11 19 26 26 91 162 91 190 0 11 3
21 8 21 4 0 8 12 9 28 9 112 11 182 5 182 -7 0 -10 21 -14 88 -1 12 -6 22 -10
22 -4 0 -8 9 -8 20 0 11 -4 20 -8 20 -4 0 -9 10 -9 22 -1 13 -7 24 -13 26 -5
2 -10 12 -10 23 0 10 -4 19 -10 19 -5 0 -10 7 -10 15 0 8 -3 15 -8 15 -4 0
-13 14 -20 30 -8 17 -18 28 -23 24 -5 -3 -9 0 -9 6 0 11 -65 80 -75 80 -3 0
-16 11 -28 23 -20 21 -127 79 -152 82 -5 1 -18 5 -27 9 -10 4 -23 6 -30 3 -7
-2 -24 0 -38 5 -46 18 -329 31 -386 18z"/>
</g>
</svg>
